# xmcd CD database file
#
# Track frame offsets:
#	187
#	16440
#	33240
#	49515
#
# Disc length: 880 seconds
#
# Revision: 0
# Processed by: cddbd v1.5.1PL0 Copyright (c) Steve Scherf et al.
# Submitted via: CDex 1.51
#
DISCID=25036e04
DTITLE=松宮麻衣子 - リンゴ
DYEAR=1996
DGENRE=JPop
TTITLE0=リンゴ
TTITLE1=大きくなる
TTITLE2=リンゴ Original Karaoke
TTITLE3=大きくなる Original Karaoke
EXTD=YEAR: 1996
EXTT0=
EXTT1=
EXTT2=
EXTT3=
PLAYORDER=
